<svg height="100%" width="100%" id="svg" viewBox="0 0 1440 600" xmlns="http://www.w3.org/2000/svg" class="transition duration-300 ease-in-out delay-150"><path d="M 0,600 C 0,600 0,200 0,200 C 124.91866028708137,216.44019138755982 249.83732057416273,232.8803827751196 324,238 C 398.16267942583727,243.1196172248804 421.56937799043055,236.91866028708134 526,222 C 630.4306220095694,207.08133971291866 815.8851674641149,183.444976076555 917,166 C 1018.1148325358851,148.555023923445 1034.88995215311,137.30143540669857 1108,144 C 1181.11004784689,150.69856459330143 1310.5550239234449,175.3492822966507 1440,200 C 1440,200 1440,600 1440,600 Z" stroke="none" stroke-width="0" fill="#04042d88" class="transition-all duration-300 ease-in-out delay-150"></path><path d="M 0,600 C 0,600 0,400 0,400 C 87.68421052631578,403.21531100478467 175.36842105263156,406.4306220095694 280,392 C 384.63157894736844,377.5693779904306 506.2105263157895,345.4928229665072 590,354 C 673.7894736842105,362.5071770334928 719.7894736842105,411.5980861244019 821,409 C 922.2105263157895,406.4019138755981 1078.6315789473683,352.11483253588517 1191,342 C 1303.3684210526317,331.88516746411483 1371.6842105263158,365.9425837320574 1440,400 C 1440,400 1440,600 1440,600 Z" stroke="none" stroke-width="0" fill="#04042dff" class="transition-all duration-300 ease-in-out delay-150"></path></svg>